<svg xmlns="http://www.w3.org/2000/svg" viewBox="0 0 249 118" width="249" height="118">
	<style>
		tspan { white-space:pre }
	</style>
	<path id="Jhonatan's Portfolio " fill="#000000" d="M57.58 28.95Q57.93 30.14 57.37 30.53Q56.85 30.91 55.03 30.77Q54.99 32.66 54.99 34.13Q54.99 35.6 54.96 37Q54.96 38.41 54.96 39.91Q54.96 41.38 54.92 43.27Q54.89 44.35 55.03 45.86Q55.17 47.33 55.1 48.77Q55.1 48.98 55.03 49.39Q54.96 49.81 54.85 50.3Q54.75 50.76 54.54 51.22Q54.36 51.63 54.08 51.84Q52.61 53.03 50.69 53.45Q48.8 53.84 46.98 53.8Q45.19 53.73 43.72 53.42Q42.29 53.07 41.69 52.76Q41.1 52.44 40.22 51.74Q39.38 51.04 38.68 50.23Q38.02 49.43 37.77 48.7Q37.53 47.96 38.19 47.58Q38.65 47.4 39.03 47.58Q39.42 47.75 39.8 48.03Q40.5 48.73 41.13 49.33Q41.76 49.92 42.36 50.34Q42.92 50.73 43.72 50.94Q44.56 51.11 45.02 50.83Q45.12 50.76 45.19 49.67Q45.26 48.55 45.26 46.84Q45.3 45.09 45.26 42.95Q45.23 40.78 45.16 38.61Q45.12 36.41 45.02 34.38Q44.95 32.35 44.88 30.88Q43.3 30.81 41.83 30.88Q40.4 30.95 39.35 30.7Q39 30.63 38.86 30.11Q38.75 29.58 38.93 29.2Q39.14 28.81 40.08 28.67Q41.03 28.53 42.29 28.53Q43.55 28.5 44.91 28.53Q46.28 28.57 47.33 28.57Q48.13 28.57 49.18 28.53Q50.23 28.5 51.35 28.46Q52.47 28.43 53.56 28.43Q54.64 28.43 55.52 28.46Q56.39 28.5 56.95 28.64Q57.51 28.74 57.58 28.95ZM69.27 32.73Q69.27 34.31 69.31 35.67Q69.38 37 69.45 38.27Q69.52 39.52 69.55 40.71Q69.63 41.91 69.63 43.13Q71.16 43.13 72.49 42.99Q73.82 42.81 75.61 42.81L75.61 32.1Q75.61 31.89 75.99 31.68Q76.41 31.47 76.91 31.44Q77.43 31.37 77.81 31.51Q78.23 31.65 78.23 32.1Q78.34 33.99 78.38 36.13Q78.44 38.27 78.48 40.5Q78.51 42.74 78.51 44.98Q78.51 47.23 78.51 49.36Q78.51 49.81 78.55 50.45Q78.58 51.04 78.51 51.6Q78.48 52.16 78.3 52.55Q78.13 52.93 77.67 52.93Q77.43 53.03 77.15 53Q76.87 52.97 76.59 52.86Q76.34 52.76 76.13 52.58Q75.96 52.37 75.92 52.16Q75.85 51.7 75.78 50.69Q75.75 49.67 75.71 48.59Q75.68 47.51 75.64 46.56Q75.64 45.62 75.64 45.3Q73.86 45.3 72.49 45.41Q71.16 45.48 69.63 45.48Q69.63 46.49 69.63 47.33Q69.66 48.17 69.69 48.91Q69.73 49.64 69.73 50.34Q69.76 51.04 69.76 51.74Q69.76 52.23 69.06 52.55Q68.36 52.83 67.31 52.97Q66.26 53.1 65.04 53.07Q63.81 53.03 62.76 52.86Q61.71 52.65 60.98 52.3Q60.28 51.95 60.24 51.46Q60.1 48.66 60.07 46.24Q60.07 43.83 60.07 41.59Q60.07 39.35 60.07 37.21Q60.1 35.08 60 32.84Q59.96 32.28 60.63 31.89Q61.33 31.47 62.34 31.26Q63.39 31.05 64.58 31.02Q65.81 30.98 66.82 31.16Q67.88 31.33 68.57 31.75Q69.27 32.14 69.27 32.73ZM88.24 31.54Q90.76 31.4 92.65 31.72Q94.54 32 95.91 32.84Q97.31 33.64 98.25 34.97Q99.2 36.3 99.79 38.23Q100.04 39.03 100.14 39.73Q100.28 40.4 100.28 41.2Q100.32 42.01 100.25 43.06Q100.21 44.08 100.07 45.55Q99.83 47.44 98.78 49.05Q97.73 50.66 96.12 51.77Q94.51 52.86 92.48 53.35Q90.45 53.84 88.24 53.49Q86.04 53.17 84.18 52.02Q82.36 50.87 81.1 49.05Q80.33 48.03 79.91 46.63Q79.49 45.2 79.35 43.69Q79.25 42.15 79.42 40.64Q79.63 39.1 80.12 37.84Q80.65 36.69 81.49 35.6Q82.33 34.52 83.38 33.68Q84.43 32.8 85.65 32.24Q86.91 31.65 88.24 31.54ZM95.07 35.05Q94.54 34.59 93.6 34.2Q92.69 33.82 91.78 33.68Q90.87 33.5 90.17 33.64Q89.47 33.75 89.33 34.31Q89.19 35.11 89.19 36.3Q89.19 37.46 89.22 38.79Q89.29 40.12 89.33 41.55Q89.4 42.95 89.36 44.22Q89.33 44.91 89.29 45.89Q89.26 46.88 89.36 47.82Q89.5 48.73 89.85 49.47Q90.2 50.16 90.97 50.3Q92.69 50.66 93.98 50.02Q95.31 49.36 96.19 48.06Q97.06 46.73 97.45 44.98Q97.87 43.23 97.76 41.45Q97.66 39.63 96.99 37.95Q96.33 36.23 95.07 35.05ZM115.58 44.28Q115.82 42.92 115.68 41.52Q115.58 40.09 115.58 38.09Q115.58 37.46 115.54 36.44Q115.51 35.43 115.51 34.45Q115.51 33.44 115.58 32.63Q115.65 31.82 115.89 31.61Q116.59 31.37 117.12 31.58Q117.64 31.75 117.64 32.21Q117.71 33.82 117.82 35.95Q117.96 38.05 118.03 40.3Q118.13 42.5 118.17 44.67Q118.2 46.84 118.13 48.55Q118.1 50.27 117.89 51.39Q117.71 52.48 117.33 52.55Q116.8 52.65 115.93 52.76Q115.05 52.83 114.14 52.83Q113.27 52.83 112.46 52.69Q111.66 52.55 111.24 52.23Q109.91 51.01 109.07 49.43Q108.26 47.85 107.6 46.17Q106.93 44.49 106.2 42.85Q105.5 41.2 104.41 39.88Q104.27 41.91 104.17 43.86Q104.1 45.79 104.06 47.47Q104.03 49.15 104.03 50.48Q104.03 51.77 104.06 52.55Q104.1 52.79 103.75 52.93Q103.43 53.07 103.01 53.07Q102.63 53.03 102.31 52.86Q102 52.65 102.03 52.23Q102.1 51.32 102.07 50.27Q102.03 49.22 102.03 48.41Q101.86 44.67 101.82 40.99Q101.79 37.28 101.79 33.99Q101.79 32.77 102.42 32.14Q103.05 31.47 103.96 31.23Q104.87 30.95 105.88 31.02Q106.9 31.09 107.67 31.3Q108.3 31.54 108.89 32.31Q109.52 33.05 110.08 33.99Q110.64 34.91 111.13 35.88Q111.66 36.83 112.11 37.49Q112.43 38.27 112.88 39.14Q113.34 40.02 113.83 40.92Q114.32 41.8 114.77 42.67Q115.26 43.52 115.58 44.28ZM136.89 47.96Q136.89 48.48 136.89 49.15Q136.89 49.78 136.86 50.41Q136.86 51.04 136.75 51.63Q136.69 52.2 136.47 52.62Q136.33 52.9 135.35 53.07Q134.38 53.21 133.22 53.21Q132.1 53.21 131.12 53.07Q130.17 52.9 130.03 52.55Q129.82 51.91 129.79 50.9Q129.79 49.85 129.79 48.73Q129.82 47.58 129.82 46.52Q129.86 45.48 129.75 44.81Q128.95 44.7 128 44.7Q127.09 44.67 126.11 44.67Q125.13 44.67 124.15 44.67Q123.17 44.63 122.26 44.53Q122.05 45.51 122.05 46.59Q122.05 47.64 122.09 48.7Q122.16 49.74 122.16 50.69Q122.19 51.63 122.09 52.3Q122.02 52.76 121.67 52.93Q121.35 53.07 120.97 53.03Q120.62 52.97 120.34 52.69Q120.06 52.41 120.06 51.98Q120.06 50.8 120.02 49.64Q119.99 48.48 120.06 46.73Q120.13 44.74 120.16 42.81Q120.23 40.85 120.48 39.07Q120.72 37.28 121.28 35.78Q121.84 34.24 122.93 33.08Q123.63 32.28 124.75 31.65Q125.87 31.02 127.44 31.02Q129.65 31.02 131.22 31.72Q132.83 32.42 133.88 33.64Q134.97 34.87 135.6 36.52Q136.23 38.13 136.51 40.02Q136.82 41.91 136.89 43.94Q136.96 45.96 136.89 47.96ZM122.3 42.57L130.1 42.57Q130.1 40.16 129.82 38.47Q129.54 36.8 128.98 35.74Q128.46 34.69 127.69 34.24Q126.92 33.75 125.94 33.75Q125.27 33.75 124.75 34.24Q124.22 34.73 123.8 35.53Q123.42 36.34 123.14 37.32Q122.86 38.3 122.65 39.28Q122.47 40.26 122.37 41.13Q122.3 42.01 122.3 42.57ZM147.88 33.75Q147.81 33.85 147.78 34.41Q147.75 34.94 147.75 35.78Q147.75 36.62 147.75 37.63Q147.78 38.65 147.81 39.7Q147.85 40.71 147.85 41.7Q147.88 42.64 147.88 43.34L147.88 50.9Q147.88 51.35 147.81 51.91Q147.75 52.48 147.32 52.65Q147.15 52.72 146.63 52.76Q146.13 52.79 145.44 52.83Q144.77 52.83 144 52.83Q143.23 52.83 142.53 52.83Q141.86 52.79 141.38 52.79Q140.88 52.76 140.75 52.76Q140.04 52.76 139.66 52.58Q139.27 52.41 139.27 51.6L139.27 46.07L139.27 33.92Q139.27 33.78 138.75 33.75Q138.26 33.72 137.59 33.75Q136.96 33.75 136.37 33.78Q135.81 33.78 135.7 33.75Q135.18 33.72 134.9 33.64Q134.66 33.54 134.55 33.36Q134.48 33.19 134.48 32.88Q134.51 32.52 134.51 32Q134.72 31.68 135 31.58Q135.28 31.44 135.56 31.44Q135.88 31.4 136.19 31.44Q136.51 31.47 136.82 31.47L151.07 31.47Q151.63 31.47 151.94 31.51Q152.29 31.51 152.47 31.61Q152.68 31.72 152.75 31.96Q152.82 32.21 152.82 32.63Q152.82 33.02 152.61 33.22Q152.44 33.44 152.16 33.58Q151.91 33.68 151.59 33.72Q151.31 33.75 151.07 33.75Q150.23 33.75 149.39 33.64Q148.55 33.54 147.88 33.75ZM168.57 47.96Q168.57 48.48 168.57 49.15Q168.57 49.78 168.53 50.41Q168.53 51.04 168.43 51.63Q168.36 52.2 168.15 52.62Q168.01 52.9 167.03 53.07Q166.05 53.21 164.89 53.21Q163.78 53.21 162.8 53.07Q161.85 52.9 161.71 52.55Q161.5 51.91 161.47 50.9Q161.47 49.85 161.47 48.73Q161.5 47.58 161.5 46.52Q161.53 45.48 161.43 44.81Q160.63 44.7 159.68 44.7Q158.77 44.67 157.79 44.67Q156.81 44.67 155.83 44.67Q154.85 44.63 153.94 44.53Q153.73 45.51 153.73 46.59Q153.73 47.64 153.76 48.7Q153.84 49.74 153.84 50.69Q153.87 51.63 153.76 52.3Q153.69 52.76 153.34 52.93Q153.03 53.07 152.64 53.03Q152.29 52.97 152.01 52.69Q151.73 52.41 151.73 51.98Q151.73 50.8 151.7 49.64Q151.66 48.48 151.73 46.73Q151.81 44.74 151.84 42.81Q151.91 40.85 152.16 39.07Q152.4 37.28 152.96 35.78Q153.52 34.24 154.6 33.08Q155.31 32.28 156.43 31.65Q157.54 31.02 159.12 31.02Q161.32 31.02 162.9 31.72Q164.51 32.42 165.56 33.64Q166.64 34.87 167.28 36.52Q167.91 38.13 168.19 40.02Q168.5 41.91 168.57 43.94Q168.64 45.96 168.57 47.96ZM153.97 42.57L161.78 42.57Q161.78 40.16 161.5 38.47Q161.22 36.8 160.66 35.74Q160.13 34.69 159.37 34.24Q158.59 33.75 157.62 33.75Q156.95 33.75 156.43 34.24Q155.9 34.73 155.48 35.53Q155.09 36.34 154.81 37.32Q154.53 38.3 154.32 39.28Q154.15 40.26 154.04 41.13Q153.97 42.01 153.97 42.57ZM183.83 44.28Q184.07 42.92 183.94 41.52Q183.83 40.09 183.83 38.09Q183.83 37.46 183.8 36.44Q183.76 35.43 183.76 34.45Q183.76 33.44 183.83 32.63Q183.9 31.82 184.15 31.61Q184.84 31.37 185.37 31.58Q185.9 31.75 185.9 32.21Q185.97 33.82 186.07 35.95Q186.21 38.05 186.28 40.3Q186.38 42.5 186.42 44.67Q186.46 46.84 186.38 48.55Q186.35 50.27 186.14 51.39Q185.97 52.48 185.58 52.55Q185.06 52.65 184.18 52.76Q183.31 52.83 182.4 52.83Q181.52 52.83 180.72 52.69Q179.91 52.55 179.49 52.23Q178.16 51.01 177.32 49.43Q176.52 47.85 175.85 46.17Q175.19 44.49 174.45 42.85Q173.75 41.2 172.67 39.88Q172.53 41.91 172.42 43.86Q172.35 45.79 172.31 47.47Q172.28 49.15 172.28 50.48Q172.28 51.77 172.31 52.55Q172.35 52.79 172 52.93Q171.69 53.07 171.27 53.07Q170.88 53.03 170.56 52.86Q170.25 52.65 170.28 52.23Q170.36 51.32 170.32 50.27Q170.28 49.22 170.28 48.41Q170.11 44.67 170.07 40.99Q170.04 37.28 170.04 33.99Q170.04 32.77 170.67 32.14Q171.3 31.47 172.21 31.23Q173.12 30.95 174.13 31.02Q175.15 31.09 175.92 31.3Q176.55 31.54 177.15 32.31Q177.78 33.05 178.34 33.99Q178.9 34.91 179.38 35.88Q179.91 36.83 180.37 37.49Q180.68 38.27 181.13 39.14Q181.59 40.02 182.08 40.92Q182.57 41.8 183.03 42.67Q183.52 43.52 183.83 44.28ZM188.84 32.21Q188.45 32.07 188.24 31.54Q188.06 31.02 188.06 30.42Q188.1 29.79 188.38 29.3Q188.66 28.78 189.29 28.67Q190.1 28.6 190.76 28.74Q191.36 28.85 191.85 29.16Q192.37 29.48 192.48 30.07Q192.58 30.46 192.62 30.98Q192.65 31.47 192.58 32Q192.55 32.49 192.41 32.94Q192.27 33.36 192.02 33.61Q191.64 33.82 191.11 34.1Q190.59 34.38 190.2 34.41Q189.85 34.41 189.81 34.06Q189.78 33.68 190.44 32.59Q190.44 32.49 190.27 32.45Q190.13 32.42 189.89 32.42Q189.64 32.42 189.36 32.38Q189.08 32.35 188.84 32.21ZM206.58 32.17Q207.04 32.35 207.46 32.66Q207.88 32.94 208.12 33.3Q208.4 33.61 208.47 33.96Q208.58 34.27 208.4 34.48Q207.98 34.97 207.35 34.87Q206.75 34.73 206.27 34.48Q206.16 34.48 205.67 34.24Q205.18 33.96 204.48 33.75Q203.81 33.5 203.05 33.47Q202.31 33.44 201.68 33.89Q201.02 34.34 200.77 35.01Q200.53 35.67 200.56 36.34Q200.63 37 200.91 37.6Q201.23 38.2 201.68 38.51Q203.08 39.84 204.24 40.71Q205.39 41.59 206.23 42.33Q207.11 43.06 207.63 43.86Q208.19 44.67 208.4 45.89Q208.82 47.99 208.16 49.43Q207.53 50.83 206.23 51.63Q204.94 52.44 203.25 52.72Q201.58 53 199.97 52.86Q198.36 52.69 197.03 52.16Q195.73 51.6 195.17 50.8Q195.13 50.73 194.93 50.48Q194.75 50.2 194.58 49.85Q194.44 49.5 194.37 49.15Q194.33 48.77 194.61 48.48Q194.96 48.13 195.24 48.1Q195.52 48.06 195.73 48.2Q195.98 48.34 196.15 48.63Q196.33 48.87 196.43 49.12Q196.85 49.74 197.76 50.13Q198.67 50.52 199.62 50.48Q200.6 50.45 201.37 49.92Q202.17 49.39 202.31 48.2Q202.31 46.88 201.72 46.17Q201.12 45.48 200.25 45.02Q199.41 44.53 198.43 44.11Q197.48 43.69 196.71 42.95Q195.73 42.19 195.03 41.48Q194.33 40.75 193.91 39.88Q193.49 39 193.35 37.88Q193.25 36.72 193.46 35.11Q193.6 33.78 194.93 32.8Q196.25 31.79 198.18 31.33Q200.11 30.88 202.35 31.05Q204.62 31.19 206.58 32.17ZM47.52 88.07Q47.52 89.3 47.63 90.63Q47.73 91.92 47.73 93.04Q47.73 93.18 47.73 93.42Q47.73 93.67 47.7 93.91Q47.7 94.16 47.66 94.37Q47.63 94.58 47.52 94.65Q47.42 94.75 46.89 94.86Q46.4 94.97 45.63 95.07Q44.9 95.14 43.99 95.21Q43.11 95.25 42.2 95.21Q41.33 95.17 40.52 95.03Q39.72 94.9 39.19 94.65Q38.7 94.41 38.42 93.91Q38.14 93.39 38.21 92.94Q38.04 90.45 37.97 88.14Q37.93 85.83 37.93 83.52Q37.93 81.21 37.97 78.83Q38.04 76.45 38.07 73.79Q38 73.05 38.21 72.53Q38.46 71.97 38.81 71.58Q39.16 71.2 39.54 71.03Q39.96 70.81 40.21 70.78Q41.82 70.6 43.57 70.57Q45.35 70.5 47.03 70.75Q48.75 70.99 50.29 71.58Q51.86 72.14 53.02 73.23Q54.21 74.28 54.91 75.89Q55.64 77.47 55.68 79.7Q55.68 80.51 55.61 81.38Q55.57 82.22 55.36 83.03Q55.19 83.84 54.87 84.57Q54.56 85.27 54.03 85.83Q53.47 86.42 52.7 86.84Q51.93 87.23 51.06 87.51Q50.18 87.75 49.27 87.89Q48.36 88 47.52 88.07ZM47.45 73.02Q47.45 73.16 47.45 73.33Q47.45 73.47 47.49 73.65Q47.49 73.83 47.52 74.03Q47.63 75.4 47.66 76.97Q47.7 78.55 47.66 80.16Q47.66 81.73 47.63 83.24Q47.63 84.75 47.66 86Q48.33 86 49.06 85.94Q49.83 85.83 50.5 85.66Q51.2 85.44 51.72 85.13Q52.28 84.81 52.53 84.36Q53.02 83.45 53.26 82.26Q53.54 81.07 53.51 79.84Q53.51 78.58 53.12 77.39Q52.77 76.17 52.04 75.22Q51.34 74.28 50.18 73.69Q49.06 73.05 47.45 73.02ZM65.9 73.55Q68.42 73.41 70.31 73.72Q72.2 74 73.56 74.84Q74.96 75.64 75.91 76.97Q76.85 78.31 77.45 80.23Q77.69 81.03 77.8 81.73Q77.94 82.4 77.94 83.2Q77.97 84.01 77.9 85.06Q77.87 86.08 77.73 87.55Q77.48 89.44 76.43 91.05Q75.38 92.66 73.77 93.78Q72.16 94.86 70.13 95.35Q68.1 95.84 65.9 95.49Q63.69 95.17 61.84 94.02Q60.02 92.87 58.76 91.05Q57.99 90.03 57.57 88.63Q57.15 87.19 57.01 85.69Q56.9 84.15 57.08 82.64Q57.29 81.1 57.78 79.84Q58.3 78.69 59.14 77.6Q59.98 76.52 61.03 75.68Q62.08 74.81 63.31 74.25Q64.57 73.65 65.9 73.55ZM72.72 77.05Q72.2 76.59 71.25 76.2Q70.34 75.82 69.43 75.68Q68.52 75.5 67.82 75.64Q67.12 75.75 66.98 76.31Q66.84 77.11 66.84 78.31Q66.84 79.46 66.88 80.79Q66.95 82.12 66.98 83.56Q67.05 84.95 67.02 86.22Q66.98 86.91 66.95 87.89Q66.91 88.88 67.02 89.82Q67.16 90.73 67.51 91.47Q67.86 92.16 68.63 92.31Q70.34 92.66 71.64 92.03Q72.97 91.36 73.84 90.06Q74.72 88.73 75.1 86.98Q75.52 85.23 75.42 83.45Q75.31 81.63 74.65 79.95Q73.98 78.23 72.72 77.05ZM90.5 87.69Q91.06 88.45 91.97 89.3Q92.88 90.13 93.76 90.91Q94.63 91.67 95.26 92.31Q95.89 92.94 95.86 93.28Q95.75 94.09 95.44 94.37Q95.12 94.65 94.63 94.58Q94.18 94.47 93.58 94.06Q92.99 93.63 92.29 93Q91.34 92.09 90.33 91.12Q89.31 90.1 88.4 89.44Q88.3 89.96 88.37 90.69Q88.44 91.43 88.47 92.16Q88.51 92.87 88.4 93.42Q88.33 93.98 87.88 94.16Q87.56 94.51 86.69 94.69Q85.85 94.86 84.83 94.9Q83.85 94.9 82.87 94.79Q81.93 94.69 81.37 94.44Q80.7 94.23 80.6 93.6Q80.49 92.97 80.49 92.09Q80.56 90.84 80.49 89.05Q80.46 87.23 80.35 85.27Q80.28 83.28 80.25 81.28Q80.21 79.25 80.28 77.6Q80.35 75.96 80.6 74.84Q80.84 73.72 81.37 73.47Q82.03 73.05 83.36 72.91Q84.73 72.78 86.23 72.84Q87.77 72.88 89.17 73.09Q90.61 73.27 91.38 73.47Q92.5 73.83 93.34 74.53Q94.21 75.19 94.77 76.06Q95.37 76.91 95.68 77.88Q96 78.83 96.1 79.7Q96.1 80.37 96.07 81.07Q96.07 81.77 95.96 82.44Q95.89 83.1 95.72 83.69Q95.54 84.25 95.19 84.67Q94.35 85.83 93.16 86.42Q92.01 87.02 90.5 87.69ZM88.12 85.86Q89 86.11 90.05 85.83Q91.1 85.55 91.97 84.99Q92.88 84.43 93.48 83.66Q94.07 82.89 94.07 82.12Q94.18 80.34 93.72 78.97Q93.3 77.57 92.5 76.63Q91.69 75.68 90.57 75.22Q89.49 74.73 88.26 74.73Q88.26 76.06 88.23 77.64Q88.23 79.22 88.19 80.79Q88.16 82.33 88.12 83.69Q88.12 85.03 88.12 85.86ZM110.45 75.75Q110.38 75.85 110.35 76.41Q110.31 76.94 110.31 77.78Q110.31 78.62 110.31 79.63Q110.35 80.65 110.38 81.7Q110.42 82.72 110.42 83.69Q110.45 84.64 110.45 85.34L110.45 92.9Q110.45 93.35 110.38 93.91Q110.31 94.47 109.89 94.65Q109.72 94.72 109.19 94.75Q108.7 94.79 108 94.83Q107.34 94.83 106.57 94.83Q105.8 94.83 105.1 94.83Q104.43 94.79 103.94 94.79Q103.45 94.75 103.31 94.75Q102.61 94.75 102.23 94.58Q101.84 94.41 101.84 93.6L101.84 88.07L101.84 75.92Q101.84 75.78 101.32 75.75Q100.83 75.72 100.16 75.75Q99.53 75.75 98.94 75.78Q98.38 75.78 98.27 75.75Q97.75 75.72 97.47 75.64Q97.22 75.54 97.12 75.36Q97.05 75.19 97.05 74.88Q97.08 74.53 97.08 74Q97.29 73.69 97.57 73.58Q97.85 73.44 98.13 73.44Q98.45 73.41 98.76 73.44Q99.08 73.47 99.39 73.47L113.64 73.47Q114.2 73.47 114.51 73.51Q114.86 73.51 115.04 73.61Q115.25 73.72 115.32 73.97Q115.39 74.21 115.39 74.63Q115.39 75.02 115.18 75.22Q115 75.44 114.72 75.58Q114.48 75.68 114.16 75.72Q113.88 75.75 113.64 75.75Q112.8 75.75 111.96 75.64Q111.12 75.54 110.45 75.75ZM126.13 75.82Q126.13 78.13 126.24 80.69Q126.34 83.24 126.13 85.55Q126.8 85.55 127.64 85.48Q128.48 85.41 129.18 85.44Q129.88 85.44 130.3 85.66Q130.75 85.86 130.65 86.39Q130.65 87.09 130.09 87.34Q129.56 87.55 128.86 87.58Q128.16 87.62 127.46 87.55Q126.76 87.47 126.41 87.58Q126.41 88.07 126.45 89.05Q126.52 90 126.52 91.01Q126.52 92.03 126.45 92.9Q126.38 93.74 126.13 93.95Q125.99 94.27 125.29 94.47Q124.63 94.65 123.68 94.75Q122.74 94.86 121.65 94.86Q120.6 94.86 119.69 94.75Q118.78 94.65 118.12 94.47Q117.49 94.27 117.42 93.95Q117.24 93.15 117.1 91.47Q117 89.78 116.89 87.75Q116.82 85.69 116.79 83.48Q116.75 81.28 116.79 79.39Q116.82 77.47 116.89 76.1Q116.96 74.73 117.1 74.35Q117.31 73.79 117.98 73.51Q118.68 73.19 119.62 73.09Q120.6 72.98 121.72 73.02Q122.88 73.05 124 73.16Q125.12 73.23 126.17 73.33Q127.22 73.41 127.95 73.44Q128.72 73.47 129.53 73.44Q130.37 73.41 131.03 73.51Q131.73 73.61 132.15 73.93Q132.57 74.25 132.5 74.98Q132.43 75.47 131.63 75.58Q130.86 75.68 129.81 75.68Q128.79 75.64 127.74 75.64Q126.69 75.61 126.13 75.82ZM143.74 73.55Q146.26 73.41 148.15 73.72Q150.04 74 151.4 74.84Q152.8 75.64 153.75 76.97Q154.69 78.31 155.29 80.23Q155.53 81.03 155.64 81.73Q155.78 82.4 155.78 83.2Q155.81 84.01 155.74 85.06Q155.71 86.08 155.57 87.55Q155.32 89.44 154.27 91.05Q153.22 92.66 151.61 93.78Q150 94.86 147.97 95.35Q145.94 95.84 143.74 95.49Q141.53 95.17 139.68 94.02Q137.86 92.87 136.6 91.05Q135.83 90.03 135.41 88.63Q134.99 87.19 134.85 85.69Q134.74 84.15 134.92 82.64Q135.13 81.1 135.62 79.84Q136.14 78.69 136.98 77.6Q137.82 76.52 138.87 75.68Q139.92 74.81 141.15 74.25Q142.41 73.65 143.74 73.55ZM150.56 77.05Q150.04 76.59 149.09 76.2Q148.18 75.82 147.27 75.68Q146.36 75.5 145.66 75.64Q144.96 75.75 144.82 76.31Q144.68 77.11 144.68 78.31Q144.68 79.46 144.72 80.79Q144.79 82.12 144.82 83.56Q144.89 84.95 144.86 86.22Q144.82 86.91 144.79 87.89Q144.75 88.88 144.86 89.82Q145 90.73 145.35 91.47Q145.7 92.16 146.47 92.31Q148.18 92.66 149.48 92.03Q150.81 91.36 151.68 90.06Q152.56 88.73 152.94 86.98Q153.36 85.23 153.26 83.45Q153.15 81.63 152.49 79.95Q151.82 78.23 150.56 77.05ZM167.05 74.45Q167.12 77.22 167.08 79.22Q167.08 81.21 167.01 82.72Q166.98 84.22 166.91 85.38Q166.84 86.5 166.8 87.62Q166.8 88.7 166.84 89.89Q166.87 91.05 167.05 92.59Q167.61 92.59 168.27 92.62Q168.97 92.62 169.5 92.8Q170.06 92.94 170.34 93.25Q170.62 93.56 170.41 94.13Q170.3 94.44 169.85 94.58Q169.39 94.72 168.8 94.75Q168.24 94.79 167.64 94.75Q167.05 94.72 166.7 94.72Q164.7 94.72 163.34 94.79Q161.97 94.86 161.06 94.9Q160.19 94.93 159.66 94.86Q159.14 94.75 158.86 94.47Q158.58 94.16 158.4 93.56Q158.26 92.97 158.12 91.99Q158.12 91.6 158.12 90.69Q158.12 89.78 158.09 88.59Q158.09 87.37 158.05 86Q158.05 84.6 158.02 83.31Q157.98 82.02 157.91 80.89Q157.88 79.78 157.81 79.11Q157.81 77.92 157.84 76.66Q157.88 75.4 158.12 74.45Q158.19 73.93 158.86 73.58Q159.52 73.19 160.47 73.02Q161.45 72.84 162.57 72.84Q163.69 72.84 164.63 73.02Q165.61 73.19 166.28 73.58Q166.94 73.93 167.05 74.45ZM186.44 73.83Q186.65 73.83 186.75 73.97Q186.89 74.1 186.93 74.31Q187 74.49 187 74.7Q187.03 74.88 187.03 74.98Q186.93 75.44 186.58 75.61Q186.23 75.75 185.81 75.78Q185.39 75.78 184.97 75.78Q184.58 75.75 184.37 75.85Q184.16 78.72 184.27 81.81Q184.37 84.85 184.37 88.17Q184.37 89.5 184.41 90.59Q184.44 91.67 184.69 92.59Q185.35 92.59 185.7 92.62Q186.05 92.66 186.72 92.87Q186.93 93.08 187 93.39Q187.07 93.7 186.96 93.98Q186.86 94.27 186.58 94.47Q186.3 94.65 185.84 94.65Q184.62 94.65 183.04 94.72Q181.5 94.75 179.75 94.83Q178 94.86 176.11 94.9Q174.22 94.93 172.37 94.93Q171.91 94.83 171.7 94.55Q171.53 94.23 171.49 93.91Q171.49 93.56 171.56 93.28Q171.67 92.97 171.77 92.87Q171.88 92.66 172.23 92.62Q172.58 92.59 173 92.62Q173.45 92.66 173.91 92.69Q174.36 92.69 174.71 92.59Q174.92 88.59 174.82 84.22Q174.71 79.84 174.71 75.85Q174.15 75.75 173.52 75.72Q172.93 75.68 172.4 75.58Q171.88 75.47 171.53 75.22Q171.18 74.94 171.18 74.38Q171.28 73.97 171.56 73.79Q171.88 73.58 172.26 73.55Q172.65 73.47 173.07 73.51Q173.49 73.51 173.8 73.51L180.28 73.51Q181.85 73.51 183.46 73.55Q185.11 73.58 186.44 73.83ZM195.29 73.55Q197.81 73.41 199.7 73.72Q201.59 74 202.96 74.84Q204.36 75.64 205.3 76.97Q206.25 78.31 206.84 80.23Q207.09 81.03 207.19 81.73Q207.33 82.4 207.33 83.2Q207.37 84.01 207.3 85.06Q207.26 86.08 207.12 87.55Q206.88 89.44 205.83 91.05Q204.78 92.66 203.17 93.78Q201.56 94.86 199.53 95.35Q197.5 95.84 195.29 95.49Q193.09 95.17 191.23 94.02Q189.41 92.87 188.15 91.05Q187.38 90.03 186.96 88.63Q186.54 87.19 186.4 85.69Q186.3 84.15 186.47 82.64Q186.68 81.1 187.17 79.84Q187.7 78.69 188.54 77.6Q189.38 76.52 190.43 75.68Q191.48 74.81 192.7 74.25Q193.96 73.65 195.29 73.55ZM202.12 77.05Q201.59 76.59 200.65 76.2Q199.74 75.82 198.83 75.68Q197.92 75.5 197.22 75.64Q196.52 75.75 196.38 76.31Q196.24 77.11 196.24 78.31Q196.24 79.46 196.27 80.79Q196.34 82.12 196.38 83.56Q196.45 84.95 196.41 86.22Q196.38 86.91 196.34 87.89Q196.31 88.88 196.41 89.82Q196.55 90.73 196.9 91.47Q197.25 92.16 198.02 92.31Q199.74 92.66 201.03 92.03Q202.36 91.36 203.24 90.06Q204.11 88.73 204.5 86.98Q204.92 85.23 204.81 83.45Q204.71 81.63 204.04 79.95Q203.38 78.23 202.12 77.05Z" />
</svg>